<?xml version="1.0" encoding="UTF-8" standalone="no"?>
<!-- Generator: Adobe Illustrator 26.5.0, SVG Export Plug-In . SVG Version: 6.00 Build 0)  -->

<svg
   version="1.1"
   id="Warstwa_4"
   x="0px"
   y="0px"
   viewBox="0 0 1417.3092 1289.2492"
   xml:space="preserve"
   sodipodi:docname="logo.svg"
   width="1417.3092"
   height="1289.2491"
   inkscape:version="1.2.2 (b0a8486541, 2022-12-01)"
   xmlns:inkscape="http://www.inkscape.org/namespaces/inkscape"
   xmlns:sodipodi="http://sodipodi.sourceforge.net/DTD/sodipodi-0.dtd"
   xmlns="http://www.w3.org/2000/svg"
   xmlns:svg="http://www.w3.org/2000/svg"><defs
   id="defs55" /><sodipodi:namedview
   id="namedview53"
   pagecolor="#ffffff"
   bordercolor="#666666"
   borderopacity="1.0"
   inkscape:showpageshadow="2"
   inkscape:pageopacity="0.0"
   inkscape:pagecheckerboard="0"
   inkscape:deskcolor="#d1d1d1"
   showgrid="false"
   inkscape:zoom="0.23886941"
   inkscape:cx="1883.8746"
   inkscape:cy="650.98332"
   inkscape:window-width="2560"
   inkscape:window-height="1398"
   inkscape:window-x="0"
   inkscape:window-y="0"
   inkscape:window-maximized="1"
   inkscape:current-layer="Warstwa_4" />
<style
   type="text/css"
   id="style2">
	.st0{fill:#FFFFFF;}
	.st1{fill:none;}
	.st2{enable-background:new    ;}
</style>
<g
   id="g233"
   transform="matrix(0.86024495,0,0,-0.86024495,-1007.3332,-131.18735)">
	<path
   id="path6-9"
   class="st0"
   d="m 2496.1,-692.2 c 38.4,3.1 75.4,14 110.8,28 63.1,-498 -646.7,-790 -761.4,-371.8 -3.7,21.8 -6,17.9 15.1,25.7 14.3,5.4 30.2,10.1 43.7,17.9 46.5,21.9 44.3,72.8 25.6,115.1 -13.2,37.8 -18.8,78.1 -15.8,118.2 26.1,-3.5 52.1,-7.3 77.7,-3.9 9.8,1.6 33.2,-10.9 36.2,-11.7 22.6,-6.2 43.7,1.6 64.8,8.6 1.5,0.8 3,5.4 2.3,8.5 -5.3,28.8 -3.8,58.3 0,87.1 0.1,3 0.1,3.8 3,6.2 3.1,-28.6 5.1,-57 8.3,-85.5 1.9,-26.7 30.8,-12.5 45.2,-5.4 3,1.6 4.5,8.6 5.3,12.4 2.1,53.8 -2.1,108.5 6,161.8 0.8,0 1.5,0 2.3,0 7.9,-83 -4.7,-194.5 79.2,-242.7 -29.7,407.3 170.2,581.6 566.2,460.4 6.8,-2.3 9,-7.8 7.5,-15.5 -37.8,-158.6 -166.1,-273.4 -319.6,-311.1 -0.9,-1.5 -1.6,-1.5 -2.4,-2.3 z m -574.4,-306.4 c 0,-1.6 0.8,-3.1 0.8,-3.9 41.9,0.2 84.3,8.7 124.4,20.2 0,-0.8 0.8,-1.6 0.8,-3.1 -25.6,-10.1 -50.5,-20.2 -76.1,-31.1 42.2,3.1 78.4,24.1 116.8,37.3 0,-0.8 0.8,-1.6 0.8,-2.3 -16.6,-10.1 -33.2,-20.2 -50.5,-31.1 109.3,31.3 219.3,94.4 294.8,182 -82.7,-62.6 -176.1,-119.8 -280.4,-133 -10.6,-1.5 -19.6,1.6 -21.1,18.7 -10.7,-44.2 -75.5,-34.5 -110.3,-53.7 z" />
	<path
   id="path8-1"
   class="st0"
   d="m 2711.7,-601.2 c 171.4,-759.4 -348.4,-636.2 -530.7,-1011.1 -70.4,48.8 -42.6,147.4 -7.5,210 48.4,100.2 184.8,97.9 242,190.6 -75.4,-16.3 -151.5,-25.7 -222.4,-58.3 28.2,18.2 60,30.8 89.7,45.9 241.3,74.2 359.1,332.9 347.5,563.1 0,7 2.3,10.1 8.3,13.2 25.6,15.5 48.3,31.1 73.1,46.6 z" />
	<path
   id="path10-2"
   class="st0"
   d="m 2129.7,-1252.9 c -66.1,-131.9 -136.5,-276.1 -243.5,-376.4 -209.5,-17.8 -417.6,17.7 -545.8,203 231.7,-48.6 475.4,22.8 654.4,176.6 6.8,5.4 12.8,7.8 21.9,5.4 37.5,-8.5 74.7,-11 113,-8.6 z" />
	<path
   id="path12-7"
   class="st0"
   d="m 1253,-746.6 c 75.8,-89.8 143.7,-229.4 279.7,-219.3 -113.8,87.5 -221.7,210.6 -233.7,360.1 18.8,-49.8 48.2,-90.2 94.2,-119.8 -16.6,55.2 -31.7,109.7 -31.7,168 107.8,-197.3 297,-408.2 543.5,-322.8 1.4,-9.9 17.9,-39.3 7.5,-44.3 -223.7,-140.1 -550.2,-179.3 -700.4,84 -9.9,19.9 19.4,71.3 33.2,87.9 3.1,0.8 5.4,2.3 7.7,6.2 z" />
	<path
   id="path14-6-0"
   class="st0"
   d="m 2181.8,-1249.8 c -39.2,-24.9 -54.3,-64.6 -61.1,-112 54.1,66.8 132.9,94.2 214.9,106.6 -24.6,-14.1 -50.2,-27.4 -75.4,-38.9 -126.5,-48.6 -218.1,-281.7 -67.1,-353.1 48.4,156.2 191.3,226 319.6,306.4 10.8,-81.5 7.7,-161.1 9.8,-242.7 -3.2,-20.2 -15.4,-40.8 -21.1,-59.9 -2.3,-5.4 -5.3,-7.8 -11.3,-7.8 -193.8,1.8 -386.5,-0.8 -580.5,2.3 99.2,115.4 175.8,247.2 242,384.2 5.9,14.3 14.8,15.2 28.6,15.6 0,0.8 0.8,0.1 1.6,-0.7 z" />
	<path
   id="path16-9"
   class="st0"
   d="m 1197.9,-1210.9 c 217.4,-97.6 466.5,-73.9 671.7,42.8 6,3.1 9.1,3.1 13.6,-2.3 27.1,-30.5 58.5,-48.3 95.7,-63 -191,-163.1 -716.6,-340 -781,22.5 z" />
	<path
   id="path18-3"
   class="st0"
   d="m 1651.8,-1091.1 c -50.5,8.6 -101,14 -150,28.8 112.4,-11.1 221.2,19.6 324.2,63 -19.1,-31 16.8,-116.8 36.2,-146.2 -200.8,-117.3 -448.4,-139.3 -661.9,-41.2 -31.8,37.6 -35.4,148.1 -21.9,196.8 153,-97.6 291.5,-211.4 473.4,-101.2 z" />
	<path
   id="path20-6"
   class="st0"
   d="m 2377.8,-296.3 c -223,-28.5 -364,-232.4 -386.7,-443.3 -28.7,-3.1 -57.3,-2.3 -84.4,10.1 -11.3,5.4 -21.1,14 -31.7,21 7.1,286.6 237.4,415.8 502.8,412.2 z" />
	<path
   id="path22-0"
   class="st0"
   d="m 1585.4,-241.1 c 187.2,-104.2 100.3,14.1 231.4,-193.7 4.5,-7.8 4.5,-11.7 -2.3,-18.7 -41.8,-47.3 -82.7,-94.9 -123.6,-142.3 -110.5,69.8 -119.6,236.9 -105.5,354.7 z" />
	<path
   id="path24-6"
   class="st0"
   d="m 2435.1,-324.3 c -180.3,-59.1 -209.4,-274.9 -219.4,-438.6 -38.2,87.5 -17.4,185 -40,276.1 -52.7,-75.4 -43.1,-166.1 -43.7,-252.8 -0.8,0 -2.3,0 -3,-0.8 -7.4,51.9 -8.3,103.7 -24.1,154 -36.3,-42.5 -38.6,-99.3 -36.2,-152.4 0.8,-8.6 -2.3,-11.7 -9.8,-12.4 -126.4,-31.9 61.1,473.2 376.2,426.9 z" />
	<path
   id="path26-2"
   class="st0"
   d="m 2009.9,-208.4 c -43,14.8 -89.7,12.4 -128.2,37.3 137.8,-40.4 289.1,-5.3 420.7,-70.8 -139.4,7.9 -262.5,-35.5 -378.4,-108.9 -19.6,14 -38.4,28 -59.6,44.3 64.1,9.3 125.9,18.7 176.4,65.3 -124.7,-7.4 -275.2,-14.5 -364.9,88.7 96.6,-47 228.6,-124 334,-55.9 z" />
	<path
   id="path28-6"
   class="st0"
   d="m 1835.7,-468.2 c 15.1,-29.5 30.2,-57.5 44.5,-86.3 -11.1,-45.6 -24.7,-93.5 -33.2,-140 -61.7,4.2 -100.7,23.2 -132.7,79.3 -1.5,1.5 -1.5,7 0,8.5 41.5,45.1 78.5,96.6 121.4,138.5 z" />
	<path
   id="path30-1"
   class="st0"
   d="m 2544.4,-1559.3 c 8.8,343.2 -70.1,151.5 102.5,338.3 0,0.8 0.8,0.8 3.8,1.6 -9.8,-122.9 -31.7,-239.6 -103.3,-340.7 0,0 -1.5,0 -3,0.8 z" />
	<path
   id="path32-8"
   class="st0"
   d="m 1198.7,-867.2 c 115.7,-142.6 176.3,-201.4 363.4,-234.1 -137.8,-40.2 -261.3,63.1 -370.9,132.2 -21.2,25 -7.1,75.9 7.5,101.9 z" />
	<path
   id="path34-7"
   class="st0"
   d="m 2334.8,-272.2 c -122,-9.5 -245.1,-37.8 -341.5,-118.2 -6,-3.9 -9.1,-4.7 -14.3,-0.8 -9.8,7.8 -19.6,14 -30.9,22.5 116.8,85.6 246.5,112.9 386.7,96.5 z" />
	<path
   class="st0"
   d="m 1784.8,-343.1 c -15.1,25.1 -29.8,49.2 -42.4,70.1 0,0 6.2,13.8 15.7,22.7 1.8,-1.4 56.6,-44.3 59.7,-46.4 -22.2,-12.8 -33,-46.4 -33,-46.4 z"
   id="path19" />
	<path
   class="st0"
   d="m 1845.8,-444.6 c -15.2,25.5 -32.2,53.9 -49.1,82 0,0 9.3,42.1 34.2,55.9 2.4,-1.9 64.2,-49.6 67.4,-52.3 -47.7,-18.7 -52.5,-85.6 -52.5,-85.6 z"
   id="path21" />
	<path
   class="st0"
   d="m 1859.7,-468.1 c 15.6,-26.5 28,-47.8 34.1,-59.2 26.1,67.5 73.9,114.3 73.9,114.3 0,0 -53.6,43.2 -57,44.2 -51,-22.8 -51,-99.3 -51,-99.3 z"
   id="path23" />
	<path
   class="st0"
   d="m 1731.9,-255.7 c -17.9,29.4 -29.7,48.8 -29.7,48.8 0,0 40.8,-30.8 42.6,-33.1 -5.3,-4 -12.9,-15.7 -12.9,-15.7 z"
   id="path25" />
</g>


</svg>
